<svg xmlns="http://www.w3.org/2000/svg" viewBox="0 0 1024 1024" role="img" aria-label="National Epoxy Pros verified contiguous United States network icon"><rect width="100%" height="100%" rx="96" fill="#0A0A0A"/>
    <g transform="translate(72 250) scale(0.88)">
      <defs>
        <clipPath id="usClip"><path d="M85.30,26.03 L112.28,39.41 L100.83,53.30 L113.17,43.88 L106.28,60.71 L112.97,56.98 L118.47,43.14 L116.78,20.00 L226.93,47.19 L346.89,66.33 L503.59,75.71 L522.21,75.69 L525.04,67.48 L529.86,81.23 L542.68,86.03 L555.17,83.13 L576.53,95.30 L586.57,90.31 L607.90,94.14 L587.65,105.54 L571.86,125.74 L588.55,118.71 L587.52,126.90 L595.49,127.25 L632.40,104.16 L635.84,105.59 L628.36,110.73 L625.05,120.86 L630.08,115.77 L628.20,119.13 L635.23,117.02 L651.00,125.78 L678.76,115.26 L679.12,121.77 L692.59,119.02 L691.68,127.08 L703.61,131.33 L685.76,130.57 L684.94,135.54 L672.61,131.09 L656.41,143.78 L656.96,137.37 L650.85,142.84 L649.46,139.29 L636.75,165.47 L637.74,169.66 L651.45,151.35 L640.69,198.17 L643.92,219.97 L653.51,233.71 L663.69,227.74 L668.51,216.74 L661.45,178.07 L666.62,158.48 L674.16,150.82 L675.50,161.06 L676.65,149.18 L683.47,145.65 L681.59,137.66 L707.76,145.40 L711.29,165.87 L703.45,181.01 L708.12,183.29 L720.80,171.73 L730.18,194.09 L716.87,224.79 L734.16,229.72 L784.35,194.96 L788.18,188.84 L782.79,179.08 L816.41,172.49 L826.68,164.41 L822.38,149.98 L839.20,128.51 L892.65,114.64 L894.14,107.64 L901.23,107.35 L912.19,52.71 L918.66,57.32 L926.57,50.77 L935.67,54.80 L944.21,84.18 L963.08,98.88 L947.90,117.09 L941.29,115.18 L943.15,123.74 L936.77,113.74 L934.45,116.66 L936.08,126.73 L917.13,147.26 L915.61,157.95 L920.58,162.18 L916.14,171.69 L928.76,180.79 L934.87,177.77 L932.62,172.81 L935.97,177.26 L936.81,179.77 L936.60,183.31 L930.39,182.90 L928.72,185.23 L922.26,190.41 L926.01,186.23 L923.91,182.32 L915.43,191.23 L916.63,185.69 L913.02,184.09 L913.75,193.51 L880.77,210.38 L879.61,215.45 L909.44,201.63 L889.37,217.03 L875.47,218.83 L879.75,239.27 L871.08,260.27 L855.51,247.34 L870.38,271.71 L861.46,305.17 L862.31,284.79 L858.47,286.45 L856.90,276.86 L850.47,278.95 L848.77,272.76 L853.26,272.79 L846.02,267.80 L849.55,250.78 L840.59,259.48 L850.70,285.53 L837.01,278.96 L833.30,281.14 L834.64,275.10 L832.16,281.35 L852.85,288.47 L851.98,295.06 L849.30,294.89 L847.45,292.37 L841.61,288.63 L840.60,288.88 L848.86,295.57 L853.28,295.91 L855.80,308.27 L848.81,304.68 L843.61,305.51 L853.48,311.48 L861.51,308.88 L874.96,332.25 L866.41,319.48 L863.55,317.56 L869.05,326.82 L861.15,323.31 L863.98,326.25 L855.55,331.16 L852.34,325.60 L853.88,332.95 L864.72,329.56 L866.90,337.00 L868.52,329.14 L872.16,334.84 L866.29,344.55 L849.90,343.67 L860.94,347.12 L853.06,354.67 L865.32,352.12 L862.76,360.77 L863.76,358.12 L868.88,349.76 L869.54,350.06 L862.82,362.22 L845.27,369.68 L840.26,383.76 L825.67,388.50 L818.19,406.83 L795.21,426.72 L788.89,441.04 L788.47,468.58 L829.12,545.41 L827.95,579.39 L831.08,574.32 L828.58,582.23 L824.97,587.27 L826.23,581.37 L814.10,585.34 L807.91,573.65 L799.34,571.28 L794.01,560.36 L786.80,554.66 L788.29,548.44 L784.94,554.05 L772.92,537.50 L778.60,529.00 L772.51,526.62 L772.96,535.82 L769.89,530.66 L769.81,507.31 L747.65,487.57 L736.05,484.89 L722.15,498.15 L696.23,483.58 L663.31,489.83 L668.45,488.13 L662.83,479.49 L661.05,487.79 L637.91,488.37 L628.41,497.27 L640.81,497.13 L632.26,505.71 L646.25,514.43 L638.52,520.56 L640.54,514.42 L629.69,512.48 L622.59,518.14 L617.87,512.57 L610.03,519.51 L590.45,503.24 L582.00,510.18 L558.61,505.70 L533.77,515.26 L539.46,510.94 L529.88,507.79 L531.20,516.49 L525.95,520.87 L534.30,516.05 L495.38,541.96 L485.47,554.46 L481.99,568.24 L485.42,582.99 L485.92,588.03 L481.70,572.02 L482.43,559.83 L488.14,547.47 L501.33,536.40 L486.92,542.39 L486.04,549.42 L479.55,548.31 L484.67,552.23 L476.84,561.93 L481.15,561.76 L480.49,576.22 L486.37,590.39 L480.70,593.19 L447.32,580.08 L439.66,553.95 L404.55,503.64 L380.21,502.41 L367.02,518.40 L344.46,501.84 L338.40,479.67 L312.07,450.93 L279.08,446.56 L277.79,456.54 L223.77,448.76 L158.82,410.65 L161.54,406.06 L116.60,400.73 L114.12,382.64 L99.42,368.92 L98.98,362.23 L64.29,340.96 L67.48,328.48 L52.73,297.36 L56.98,283.87 L49.36,275.54 L51.93,261.88 L52.34,266.80 L57.27,271.57 L57.00,257.15 L51.12,261.45 L43.97,255.28 L46.41,249.57 L38.13,231.88 L41.99,211.54 L36.92,195.74 L49.07,175.91 L50.59,143.46 L64.29,121.46 L80.85,73.48 L82.91,75.77 L88.17,74.83 L80.25,72.36 L86.83,64.13 L83.17,62.26 L83.55,58.57 L87.92,58.89 L83.07,57.94 L85.30,26.03 Z M945.57,119.69 L943.79,120.28 L943.69,118.48 L945.57,119.69 Z M937.44,122.26 L939.84,124.18 L938.07,124.46 L937.44,122.26 Z M936.73,188.96 L938.39,189.89 L933.67,189.76 L936.73,188.96 Z M936.53,116.97 L936.85,120.22 L936.41,120.77 L936.53,116.97 Z M924.32,191.11 L930.50,189.54 L925.06,191.82 L924.32,191.11 Z M869.95,349.85 L877.41,343.39 L875.22,332.34 L877.77,344.20 L869.95,349.85 Z M872.13,329.66 L872.29,331.68 L870.87,329.56 L872.13,329.66 Z M856.72,285.35 L855.48,285.02 L856.03,284.35 L856.72,285.35 Z M855.16,281.34 L855.65,283.70 L854.20,280.95 L855.16,281.34 Z M801.12,600.00 L807.78,593.12 L812.31,595.66 L801.12,600.00 Z M785.28,554.31 L790.83,559.30 L787.65,559.31 L785.28,554.31 Z M690.28,135.70 L689.29,137.37 L687.06,135.44 L690.28,135.70 Z M671.81,142.37 L673.98,141.61 L672.94,142.83 L671.81,142.37 Z M667.49,153.16 L666.29,154.13 L666.29,152.83 L667.49,153.16 Z M661.34,488.59 L661.78,489.87 L657.47,490.00 L661.34,488.59 Z M651.73,148.53 L653.79,148.17 L652.66,151.13 L651.73,148.53 Z M648.03,501.42 L648.29,497.70 L647.18,494.87 L648.62,497.42 L648.03,501.42 Z M641.04,492.89 L640.82,496.67 L638.28,495.38 L641.04,492.89 Z M611.99,97.46 L620.84,90.07 L623.65,89.05 L611.99,97.46 Z M592.33,120.46 L591.78,122.45 L589.88,123.28 L592.33,120.46 Z M588.76,507.70 L590.98,511.13 L586.83,509.11 L588.76,507.70 Z M114.89,33.20 L112.46,36.68 L116.38,42.14 L115.53,44.90 L111.84,36.46 L114.89,33.20 Z M112.44,32.08 L112.33,25.50 L114.92,27.31 L112.44,32.08 Z M111.76,52.88 L112.50,55.92 L110.03,56.49 L111.76,52.88 Z M98.42,376.36 L96.41,377.89 L94.58,373.86 L98.42,376.36 Z M92.83,383.78 L93.33,388.15 L92.18,383.57 L92.83,383.78 Z M74.14,355.07 L81.13,357.66 L76.48,358.22 L74.14,355.07 Z M77.86,374.77 L76.27,374.96 L75.93,373.83 L77.86,374.77 Z M69.90,355.00 L69.63,357.93 L67.96,355.09 L69.90,355.00 Z"/></clipPath>
        <linearGradient id="goldGrad" x1="0" y1="0" x2="1" y2="1"><stop offset="0" stop-color="#FFF2A8"/><stop offset="0.45" stop-color="#D4AF37"/><stop offset="1" stop-color="#A56D00"/></linearGradient>
      </defs>
      <path d="M85.30,26.03 L112.28,39.41 L100.83,53.30 L113.17,43.88 L106.28,60.71 L112.97,56.98 L118.47,43.14 L116.78,20.00 L226.93,47.19 L346.89,66.33 L503.59,75.71 L522.21,75.69 L525.04,67.48 L529.86,81.23 L542.68,86.03 L555.17,83.13 L576.53,95.30 L586.57,90.31 L607.90,94.14 L587.65,105.54 L571.86,125.74 L588.55,118.71 L587.52,126.90 L595.49,127.25 L632.40,104.16 L635.84,105.59 L628.36,110.73 L625.05,120.86 L630.08,115.77 L628.20,119.13 L635.23,117.02 L651.00,125.78 L678.76,115.26 L679.12,121.77 L692.59,119.02 L691.68,127.08 L703.61,131.33 L685.76,130.57 L684.94,135.54 L672.61,131.09 L656.41,143.78 L656.96,137.37 L650.85,142.84 L649.46,139.29 L636.75,165.47 L637.74,169.66 L651.45,151.35 L640.69,198.17 L643.92,219.97 L653.51,233.71 L663.69,227.74 L668.51,216.74 L661.45,178.07 L666.62,158.48 L674.16,150.82 L675.50,161.06 L676.65,149.18 L683.47,145.65 L681.59,137.66 L707.76,145.40 L711.29,165.87 L703.45,181.01 L708.12,183.29 L720.80,171.73 L730.18,194.09 L716.87,224.79 L734.16,229.72 L784.35,194.96 L788.18,188.84 L782.79,179.08 L816.41,172.49 L826.68,164.41 L822.38,149.98 L839.20,128.51 L892.65,114.64 L894.14,107.64 L901.23,107.35 L912.19,52.71 L918.66,57.32 L926.57,50.77 L935.67,54.80 L944.21,84.18 L963.08,98.88 L947.90,117.09 L941.29,115.18 L943.15,123.74 L936.77,113.74 L934.45,116.66 L936.08,126.73 L917.13,147.26 L915.61,157.95 L920.58,162.18 L916.14,171.69 L928.76,180.79 L934.87,177.77 L932.62,172.81 L935.97,177.26 L936.81,179.77 L936.60,183.31 L930.39,182.90 L928.72,185.23 L922.26,190.41 L926.01,186.23 L923.91,182.32 L915.43,191.23 L916.63,185.69 L913.02,184.09 L913.75,193.51 L880.77,210.38 L879.61,215.45 L909.44,201.63 L889.37,217.03 L875.47,218.83 L879.75,239.27 L871.08,260.27 L855.51,247.34 L870.38,271.71 L861.46,305.17 L862.31,284.79 L858.47,286.45 L856.90,276.86 L850.47,278.95 L848.77,272.76 L853.26,272.79 L846.02,267.80 L849.55,250.78 L840.59,259.48 L850.70,285.53 L837.01,278.96 L833.30,281.14 L834.64,275.10 L832.16,281.35 L852.85,288.47 L851.98,295.06 L849.30,294.89 L847.45,292.37 L841.61,288.63 L840.60,288.88 L848.86,295.57 L853.28,295.91 L855.80,308.27 L848.81,304.68 L843.61,305.51 L853.48,311.48 L861.51,308.88 L874.96,332.25 L866.41,319.48 L863.55,317.56 L869.05,326.82 L861.15,323.31 L863.98,326.25 L855.55,331.16 L852.34,325.60 L853.88,332.95 L864.72,329.56 L866.90,337.00 L868.52,329.14 L872.16,334.84 L866.29,344.55 L849.90,343.67 L860.94,347.12 L853.06,354.67 L865.32,352.12 L862.76,360.77 L863.76,358.12 L868.88,349.76 L869.54,350.06 L862.82,362.22 L845.27,369.68 L840.26,383.76 L825.67,388.50 L818.19,406.83 L795.21,426.72 L788.89,441.04 L788.47,468.58 L829.12,545.41 L827.95,579.39 L831.08,574.32 L828.58,582.23 L824.97,587.27 L826.23,581.37 L814.10,585.34 L807.91,573.65 L799.34,571.28 L794.01,560.36 L786.80,554.66 L788.29,548.44 L784.94,554.05 L772.92,537.50 L778.60,529.00 L772.51,526.62 L772.96,535.82 L769.89,530.66 L769.81,507.31 L747.65,487.57 L736.05,484.89 L722.15,498.15 L696.23,483.58 L663.31,489.83 L668.45,488.13 L662.83,479.49 L661.05,487.79 L637.91,488.37 L628.41,497.27 L640.81,497.13 L632.26,505.71 L646.25,514.43 L638.52,520.56 L640.54,514.42 L629.69,512.48 L622.59,518.14 L617.87,512.57 L610.03,519.51 L590.45,503.24 L582.00,510.18 L558.61,505.70 L533.77,515.26 L539.46,510.94 L529.88,507.79 L531.20,516.49 L525.95,520.87 L534.30,516.05 L495.38,541.96 L485.47,554.46 L481.99,568.24 L485.42,582.99 L485.92,588.03 L481.70,572.02 L482.43,559.83 L488.14,547.47 L501.33,536.40 L486.92,542.39 L486.04,549.42 L479.55,548.31 L484.67,552.23 L476.84,561.93 L481.15,561.76 L480.49,576.22 L486.37,590.39 L480.70,593.19 L447.32,580.08 L439.66,553.95 L404.55,503.64 L380.21,502.41 L367.02,518.40 L344.46,501.84 L338.40,479.67 L312.07,450.93 L279.08,446.56 L277.79,456.54 L223.77,448.76 L158.82,410.65 L161.54,406.06 L116.60,400.73 L114.12,382.64 L99.42,368.92 L98.98,362.23 L64.29,340.96 L67.48,328.48 L52.73,297.36 L56.98,283.87 L49.36,275.54 L51.93,261.88 L52.34,266.80 L57.27,271.57 L57.00,257.15 L51.12,261.45 L43.97,255.28 L46.41,249.57 L38.13,231.88 L41.99,211.54 L36.92,195.74 L49.07,175.91 L50.59,143.46 L64.29,121.46 L80.85,73.48 L82.91,75.77 L88.17,74.83 L80.25,72.36 L86.83,64.13 L83.17,62.26 L83.55,58.57 L87.92,58.89 L83.07,57.94 L85.30,26.03 Z M945.57,119.69 L943.79,120.28 L943.69,118.48 L945.57,119.69 Z M937.44,122.26 L939.84,124.18 L938.07,124.46 L937.44,122.26 Z M936.73,188.96 L938.39,189.89 L933.67,189.76 L936.73,188.96 Z M936.53,116.97 L936.85,120.22 L936.41,120.77 L936.53,116.97 Z M924.32,191.11 L930.50,189.54 L925.06,191.82 L924.32,191.11 Z M869.95,349.85 L877.41,343.39 L875.22,332.34 L877.77,344.20 L869.95,349.85 Z M872.13,329.66 L872.29,331.68 L870.87,329.56 L872.13,329.66 Z M856.72,285.35 L855.48,285.02 L856.03,284.35 L856.72,285.35 Z M855.16,281.34 L855.65,283.70 L854.20,280.95 L855.16,281.34 Z M801.12,600.00 L807.78,593.12 L812.31,595.66 L801.12,600.00 Z M785.28,554.31 L790.83,559.30 L787.65,559.31 L785.28,554.31 Z M690.28,135.70 L689.29,137.37 L687.06,135.44 L690.28,135.70 Z M671.81,142.37 L673.98,141.61 L672.94,142.83 L671.81,142.37 Z M667.49,153.16 L666.29,154.13 L666.29,152.83 L667.49,153.16 Z M661.34,488.59 L661.78,489.87 L657.47,490.00 L661.34,488.59 Z M651.73,148.53 L653.79,148.17 L652.66,151.13 L651.73,148.53 Z M648.03,501.42 L648.29,497.70 L647.18,494.87 L648.62,497.42 L648.03,501.42 Z M641.04,492.89 L640.82,496.67 L638.28,495.38 L641.04,492.89 Z M611.99,97.46 L620.84,90.07 L623.65,89.05 L611.99,97.46 Z M592.33,120.46 L591.78,122.45 L589.88,123.28 L592.33,120.46 Z M588.76,507.70 L590.98,511.13 L586.83,509.11 L588.76,507.70 Z M114.89,33.20 L112.46,36.68 L116.38,42.14 L115.53,44.90 L111.84,36.46 L114.89,33.20 Z M112.44,32.08 L112.33,25.50 L114.92,27.31 L112.44,32.08 Z M111.76,52.88 L112.50,55.92 L110.03,56.49 L111.76,52.88 Z M98.42,376.36 L96.41,377.89 L94.58,373.86 L98.42,376.36 Z M92.83,383.78 L93.33,388.15 L92.18,383.57 L92.83,383.78 Z M74.14,355.07 L81.13,357.66 L76.48,358.22 L74.14,355.07 Z M77.86,374.77 L76.27,374.96 L75.93,373.83 L77.86,374.77 Z M69.90,355.00 L69.63,357.93 L67.96,355.09 L69.90,355.00 Z" fill="none" stroke="#D4AF37" stroke-width="8" stroke-linejoin="round" opacity="0.96"/>
      <g clip-path="url(#usClip)">
        <line x1="552.87" y1="164.46" x2="510.71" y2="248.52" stroke="#D4AF37" stroke-width="5" stroke-linecap="round" opacity="0.88"/><line x1="674.38" y1="355.14" x2="617.51" y2="382.53" stroke="#D4AF37" stroke-width="5" stroke-linecap="round" opacity="0.88"/><line x1="104.05" y1="362.87" x2="116.83" y2="396.61" stroke="#D4AF37" stroke-width="5" stroke-linecap="round" opacity="0.88"/><line x1="114.43" y1="51.45" x2="186.92" y2="68.85" stroke="#D4AF37" stroke-width="5" stroke-linecap="round" opacity="0.88"/><line x1="861.07" y1="239.17" x2="914.83" y2="170.25" stroke="#D4AF37" stroke-width="5" stroke-linecap="round" opacity="0.88"/><line x1="534.07" y1="296.86" x2="510.71" y2="248.52" stroke="#D4AF37" stroke-width="5" stroke-linecap="round" opacity="0.88"/><line x1="777.32" y1="527.66" x2="785.08" y2="472.97" stroke="#D4AF37" stroke-width="5" stroke-linecap="round" opacity="0.88"/><line x1="746.74" y1="225.18" x2="778.63" y2="244.17" stroke="#D4AF37" stroke-width="5" stroke-linecap="round" opacity="0.88"/><line x1="116.83" y1="396.61" x2="169.33" y2="328.59" stroke="#D4AF37" stroke-width="5" stroke-linecap="round" opacity="0.88"/><line x1="497.48" y1="122.69" x2="552.87" y2="164.46" stroke="#D4AF37" stroke-width="5" stroke-linecap="round" opacity="0.88"/><line x1="834.60" y1="268.84" x2="783.14" y2="362.31" stroke="#D4AF37" stroke-width="5" stroke-linecap="round" opacity="0.88"/><line x1="647.95" y1="228.46" x2="746.74" y2="225.18" stroke="#D4AF37" stroke-width="5" stroke-linecap="round" opacity="0.88"/><line x1="783.14" y1="362.31" x2="723.58" y2="404.27" stroke="#D4AF37" stroke-width="5" stroke-linecap="round" opacity="0.88"/><line x1="521.85" y1="506.50" x2="624.35" y2="498.72" stroke="#D4AF37" stroke-width="5" stroke-linecap="round" opacity="0.88"/><line x1="356.52" y1="275.40" x2="316.65" y2="376.55" stroke="#D4AF37" stroke-width="5" stroke-linecap="round" opacity="0.88"/><line x1="647.95" y1="228.46" x2="610.01" y2="304.62" stroke="#D4AF37" stroke-width="5" stroke-linecap="round" opacity="0.88"/><line x1="778.63" y1="244.17" x2="834.60" y2="268.84" stroke="#D4AF37" stroke-width="5" stroke-linecap="round" opacity="0.88"/><line x1="834.60" y1="268.84" x2="820.26" y2="343.29" stroke="#D4AF37" stroke-width="5" stroke-linecap="round" opacity="0.88"/><line x1="778.63" y1="244.17" x2="861.07" y2="239.17" stroke="#D4AF37" stroke-width="5" stroke-linecap="round" opacity="0.88"/><line x1="723.58" y1="404.27" x2="829.72" y2="568.46" stroke="#D4AF37" stroke-width="5" stroke-linecap="round" opacity="0.88"/><line x1="876.36" y1="218.12" x2="834.60" y2="268.84" stroke="#D4AF37" stroke-width="5" stroke-linecap="round" opacity="0.88"/><line x1="494.71" y1="439.09" x2="461.02" y2="513.39" stroke="#D4AF37" stroke-width="5" stroke-linecap="round" opacity="0.88"/><line x1="610.01" y1="304.62" x2="534.07" y2="296.86" stroke="#D4AF37" stroke-width="5" stroke-linecap="round" opacity="0.88"/><line x1="552.87" y1="164.46" x2="647.95" y2="228.46" stroke="#D4AF37" stroke-width="5" stroke-linecap="round" opacity="0.88"/><line x1="510.71" y1="248.52" x2="482.22" y2="378.54" stroke="#D4AF37" stroke-width="5" stroke-linecap="round" opacity="0.88"/><line x1="243.69" y1="237.38" x2="186.03" y2="161.05" stroke="#D4AF37" stroke-width="5" stroke-linecap="round" opacity="0.88"/><line x1="721.94" y1="209.88" x2="778.63" y2="244.17" stroke="#D4AF37" stroke-width="5" stroke-linecap="round" opacity="0.88"/><line x1="186.03" y1="161.05" x2="186.92" y2="68.85" stroke="#D4AF37" stroke-width="5" stroke-linecap="round" opacity="0.88"/><line x1="624.35" y1="498.72" x2="617.51" y2="382.53" stroke="#D4AF37" stroke-width="5" stroke-linecap="round" opacity="0.88"/><line x1="314.82" y1="134.27" x2="436.04" y2="122.42" stroke="#D4AF37" stroke-width="5" stroke-linecap="round" opacity="0.88"/><line x1="861.07" y1="239.17" x2="876.36" y2="218.12" stroke="#D4AF37" stroke-width="5" stroke-linecap="round" opacity="0.88"/><line x1="96.51" y1="94.71" x2="186.92" y2="68.85" stroke="#D4AF37" stroke-width="5" stroke-linecap="round" opacity="0.88"/><line x1="116.83" y1="396.61" x2="212.97" y2="398.95" stroke="#D4AF37" stroke-width="5" stroke-linecap="round" opacity="0.88"/><line x1="552.87" y1="164.46" x2="436.04" y2="122.42" stroke="#D4AF37" stroke-width="5" stroke-linecap="round" opacity="0.88"/><line x1="212.97" y1="398.95" x2="169.33" y2="328.59" stroke="#D4AF37" stroke-width="5" stroke-linecap="round" opacity="0.88"/><line x1="104.05" y1="362.87" x2="169.33" y2="328.59" stroke="#D4AF37" stroke-width="5" stroke-linecap="round" opacity="0.88"/><line x1="212.97" y1="398.95" x2="316.65" y2="376.55" stroke="#D4AF37" stroke-width="5" stroke-linecap="round" opacity="0.88"/><line x1="647.95" y1="228.46" x2="721.94" y2="209.88" stroke="#D4AF37" stroke-width="5" stroke-linecap="round" opacity="0.88"/><line x1="723.58" y1="404.27" x2="674.38" y2="355.14" stroke="#D4AF37" stroke-width="5" stroke-linecap="round" opacity="0.88"/><line x1="356.52" y1="275.40" x2="314.82" y2="134.27" stroke="#D4AF37" stroke-width="5" stroke-linecap="round" opacity="0.88"/><line x1="114.43" y1="51.45" x2="96.51" y2="94.71" stroke="#D4AF37" stroke-width="5" stroke-linecap="round" opacity="0.88"/><line x1="497.48" y1="122.69" x2="510.71" y2="248.52" stroke="#D4AF37" stroke-width="5" stroke-linecap="round" opacity="0.88"/><line x1="52.69" y1="262.94" x2="116.83" y2="396.61" stroke="#D4AF37" stroke-width="5" stroke-linecap="round" opacity="0.88"/><line x1="186.03" y1="161.05" x2="314.82" y2="134.27" stroke="#D4AF37" stroke-width="5" stroke-linecap="round" opacity="0.88"/><line x1="783.14" y1="362.31" x2="820.26" y2="343.29" stroke="#D4AF37" stroke-width="5" stroke-linecap="round" opacity="0.88"/><line x1="114.43" y1="51.45" x2="186.03" y2="161.05" stroke="#D4AF37" stroke-width="5" stroke-linecap="round" opacity="0.88"/><line x1="723.58" y1="404.27" x2="785.08" y2="472.97" stroke="#D4AF37" stroke-width="5" stroke-linecap="round" opacity="0.88"/><line x1="723.58" y1="404.27" x2="617.51" y2="382.53" stroke="#D4AF37" stroke-width="5" stroke-linecap="round" opacity="0.88"/><line x1="829.72" y1="568.46" x2="785.08" y2="472.97" stroke="#D4AF37" stroke-width="5" stroke-linecap="round" opacity="0.88"/><line x1="876.36" y1="218.12" x2="914.83" y2="170.25" stroke="#D4AF37" stroke-width="5" stroke-linecap="round" opacity="0.88"/><line x1="494.71" y1="439.09" x2="521.85" y2="506.50" stroke="#D4AF37" stroke-width="5" stroke-linecap="round" opacity="0.88"/><line x1="169.33" y1="328.59" x2="243.69" y2="237.38" stroke="#D4AF37" stroke-width="5" stroke-linecap="round" opacity="0.88"/><line x1="721.94" y1="209.88" x2="746.74" y2="225.18" stroke="#D4AF37" stroke-width="5" stroke-linecap="round" opacity="0.88"/><line x1="674.38" y1="355.14" x2="610.01" y2="304.62" stroke="#D4AF37" stroke-width="5" stroke-linecap="round" opacity="0.88"/><line x1="746.74" y1="225.18" x2="834.60" y2="268.84" stroke="#D4AF37" stroke-width="5" stroke-linecap="round" opacity="0.88"/><line x1="610.01" y1="304.62" x2="510.71" y2="248.52" stroke="#D4AF37" stroke-width="5" stroke-linecap="round" opacity="0.88"/><line x1="610.01" y1="304.62" x2="617.51" y2="382.53" stroke="#D4AF37" stroke-width="5" stroke-linecap="round" opacity="0.88"/><line x1="861.07" y1="239.17" x2="834.60" y2="268.84" stroke="#D4AF37" stroke-width="5" stroke-linecap="round" opacity="0.88"/><line x1="534.07" y1="296.86" x2="482.22" y2="378.54" stroke="#D4AF37" stroke-width="5" stroke-linecap="round" opacity="0.88"/><line x1="914.83" y1="170.25" x2="834.60" y2="268.84" stroke="#D4AF37" stroke-width="5" stroke-linecap="round" opacity="0.88"/><line x1="521.85" y1="506.50" x2="461.02" y2="513.39" stroke="#D4AF37" stroke-width="5" stroke-linecap="round" opacity="0.88"/><line x1="723.58" y1="404.27" x2="777.32" y2="527.66" stroke="#D4AF37" stroke-width="5" stroke-linecap="round" opacity="0.88"/><line x1="829.72" y1="568.46" x2="777.32" y2="527.66" stroke="#D4AF37" stroke-width="5" stroke-linecap="round" opacity="0.88"/><line x1="723.58" y1="404.27" x2="624.35" y2="498.72" stroke="#D4AF37" stroke-width="5" stroke-linecap="round" opacity="0.88"/><line x1="52.69" y1="262.94" x2="104.05" y2="362.87" stroke="#D4AF37" stroke-width="5" stroke-linecap="round" opacity="0.88"/><line x1="497.48" y1="122.69" x2="436.04" y2="122.42" stroke="#D4AF37" stroke-width="5" stroke-linecap="round" opacity="0.88"/><line x1="52.69" y1="262.94" x2="169.33" y2="328.59" stroke="#D4AF37" stroke-width="5" stroke-linecap="round" opacity="0.88"/><line x1="494.71" y1="439.09" x2="482.22" y2="378.54" stroke="#D4AF37" stroke-width="5" stroke-linecap="round" opacity="0.88"/><line x1="96.51" y1="94.71" x2="186.03" y2="161.05" stroke="#D4AF37" stroke-width="5" stroke-linecap="round" opacity="0.88"/><line x1="778.63" y1="244.17" x2="820.26" y2="343.29" stroke="#D4AF37" stroke-width="5" stroke-linecap="round" opacity="0.88"/><line x1="461.02" y1="513.39" x2="482.22" y2="378.54" stroke="#D4AF37" stroke-width="5" stroke-linecap="round" opacity="0.88"/><line x1="243.69" y1="237.38" x2="314.82" y2="134.27" stroke="#D4AF37" stroke-width="5" stroke-linecap="round" opacity="0.88"/><line x1="169.33" y1="328.59" x2="316.65" y2="376.55" stroke="#D4AF37" stroke-width="5" stroke-linecap="round" opacity="0.88"/><line x1="243.69" y1="237.38" x2="356.52" y2="275.40" stroke="#D4AF37" stroke-width="5" stroke-linecap="round" opacity="0.88"/>
        <circle cx="114.43" cy="51.45" r="10" fill="url(#goldGrad)" stroke="#7A4E00" stroke-width="2"/><circle cx="96.51" cy="94.71" r="10" fill="url(#goldGrad)" stroke="#7A4E00" stroke-width="2"/><circle cx="52.69" cy="262.94" r="10" fill="url(#goldGrad)" stroke="#7A4E00" stroke-width="2"/><circle cx="104.05" cy="362.87" r="14" fill="url(#goldGrad)" stroke="#7A4E00" stroke-width="2"/><circle cx="116.83" cy="396.61" r="10" fill="url(#goldGrad)" stroke="#7A4E00" stroke-width="2"/><circle cx="212.97" cy="398.95" r="10" fill="url(#goldGrad)" stroke="#7A4E00" stroke-width="2"/><circle cx="169.33" cy="328.59" r="10" fill="url(#goldGrad)" stroke="#7A4E00" stroke-width="2"/><circle cx="243.69" cy="237.38" r="10" fill="url(#goldGrad)" stroke="#7A4E00" stroke-width="2"/><circle cx="356.52" cy="275.40" r="14" fill="url(#goldGrad)" stroke="#7A4E00" stroke-width="2"/><circle cx="316.65" cy="376.55" r="10" fill="url(#goldGrad)" stroke="#7A4E00" stroke-width="2"/><circle cx="186.03" cy="161.05" r="10" fill="url(#goldGrad)" stroke="#7A4E00" stroke-width="2"/><circle cx="314.82" cy="134.27" r="10" fill="url(#goldGrad)" stroke="#7A4E00" stroke-width="2"/><circle cx="497.48" cy="122.69" r="10" fill="url(#goldGrad)" stroke="#7A4E00" stroke-width="2"/><circle cx="552.87" cy="164.46" r="10" fill="url(#goldGrad)" stroke="#7A4E00" stroke-width="2"/><circle cx="647.95" cy="228.46" r="14" fill="url(#goldGrad)" stroke="#7A4E00" stroke-width="2"/><circle cx="721.94" cy="209.88" r="10" fill="url(#goldGrad)" stroke="#7A4E00" stroke-width="2"/><circle cx="746.74" cy="225.18" r="10" fill="url(#goldGrad)" stroke="#7A4E00" stroke-width="2"/><circle cx="778.63" cy="244.17" r="10" fill="url(#goldGrad)" stroke="#7A4E00" stroke-width="2"/><circle cx="861.07" cy="239.17" r="10" fill="url(#goldGrad)" stroke="#7A4E00" stroke-width="2"/><circle cx="876.36" cy="218.12" r="14" fill="url(#goldGrad)" stroke="#7A4E00" stroke-width="2"/><circle cx="914.83" cy="170.25" r="10" fill="url(#goldGrad)" stroke="#7A4E00" stroke-width="2"/><circle cx="834.60" cy="268.84" r="10" fill="url(#goldGrad)" stroke="#7A4E00" stroke-width="2"/><circle cx="783.14" cy="362.31" r="10" fill="url(#goldGrad)" stroke="#7A4E00" stroke-width="2"/><circle cx="723.58" cy="404.27" r="14" fill="url(#goldGrad)" stroke="#7A4E00" stroke-width="2"/><circle cx="674.38" cy="355.14" r="10" fill="url(#goldGrad)" stroke="#7A4E00" stroke-width="2"/><circle cx="610.01" cy="304.62" r="14" fill="url(#goldGrad)" stroke="#7A4E00" stroke-width="2"/><circle cx="534.07" cy="296.86" r="14" fill="url(#goldGrad)" stroke="#7A4E00" stroke-width="2"/><circle cx="510.71" cy="248.52" r="10" fill="url(#goldGrad)" stroke="#7A4E00" stroke-width="2"/><circle cx="494.71" cy="439.09" r="14" fill="url(#goldGrad)" stroke="#7A4E00" stroke-width="2"/><circle cx="521.85" cy="506.50" r="10" fill="url(#goldGrad)" stroke="#7A4E00" stroke-width="2"/><circle cx="461.02" cy="513.39" r="10" fill="url(#goldGrad)" stroke="#7A4E00" stroke-width="2"/><circle cx="482.22" cy="378.54" r="10" fill="url(#goldGrad)" stroke="#7A4E00" stroke-width="2"/><circle cx="624.35" cy="498.72" r="10" fill="url(#goldGrad)" stroke="#7A4E00" stroke-width="2"/><circle cx="617.51" cy="382.53" r="10" fill="url(#goldGrad)" stroke="#7A4E00" stroke-width="2"/><circle cx="829.72" cy="568.46" r="10" fill="url(#goldGrad)" stroke="#7A4E00" stroke-width="2"/><circle cx="777.32" cy="527.66" r="10" fill="url(#goldGrad)" stroke="#7A4E00" stroke-width="2"/><circle cx="785.08" cy="472.97" r="10" fill="url(#goldGrad)" stroke="#7A4E00" stroke-width="2"/><circle cx="820.26" cy="343.29" r="10" fill="url(#goldGrad)" stroke="#7A4E00" stroke-width="2"/><circle cx="436.04" cy="122.42" r="10" fill="url(#goldGrad)" stroke="#7A4E00" stroke-width="2"/><circle cx="186.92" cy="68.85" r="10" fill="url(#goldGrad)" stroke="#7A4E00" stroke-width="2"/>
        
      <circle cx="483.60" cy="310.34" r="42" fill="url(#goldGrad)" stroke="#6B4700" stroke-width="4"/>
      <circle cx="483.60" cy="310.34" r="27" fill="#0A0A0A" opacity="0.96"/>
      <path d="M483.60,293.34 L487.71,304.67 L499.76,305.08 L490.25,312.50 L493.59,324.09 L483.60,317.34 L473.60,324.09 L476.94,312.50 L467.43,305.08 L479.48,304.67 Z" fill="#F5C542"/>
    
      </g>
    </g>
    </svg>